# Blender v2.79 (sub 0) OBJ File: 'fcc.test3.blend'
# www.blender.org
mtllib fcc.test3.mtl
o Obj2_Mesh2
v -1.611707 -0.783630 -1.307246
v -1.320520 -1.396840 -0.993371
v -1.623203 -1.093363 -0.993371
v -1.006341 -1.390585 -1.307246
v -1.309024 -0.783630 -1.609929
v -1.006341 -1.087108 -1.609929
v -1.008700 -1.090857 -0.387548
v -1.008700 -1.394334 -0.690232
v -1.320520 -0.789886 -0.388004
v -1.623203 -0.789886 -0.690688
v -1.006341 -0.176676 -1.307246
v -1.611707 -0.480153 -1.004563
v -1.309024 -0.176676 -1.004563
v -1.006341 -0.480153 -1.609929
v -0.706017 -1.394334 -0.992911
v -0.403334 -1.090857 -0.992911
v -0.703658 -0.783630 -1.609929
v -0.400974 -0.783630 -1.307246
v -0.706017 -0.787380 -0.387545
v -0.403334 -0.787380 -0.690228
v -1.006341 -0.480153 -0.399196
v -1.006341 -0.176676 -0.701880
v -0.400974 -0.480153 -1.004563
v -0.703658 -0.176676 -1.004563
vn -0.9997 0.0184 -0.0185
vn -0.5758 -0.5743 -0.5819
vn -0.5708 -0.5798 0.5814
vn -0.5779 0.5763 -0.5779
vn 0.5811 -0.5795 -0.5714
vn 0.0000 0.0000 -1.0000
vn 0.5779 -0.5763 0.5779
vn -0.5727 0.5866 0.5727
vn 0.5779 0.5763 -0.5779
vn 1.0000 -0.0038 0.0038
vn 0.0000 1.0000 0.0000
vn 0.5761 0.5798 0.5761
vn 0.0041 -1.0000 -0.0061
vn -0.0008 0.0191 0.9998
usemtl _0020_Red
s off
f 12//1 1//1 3//1 10//1
f 1//2 5//2 6//2 4//2 2//2 3//2
f 9//3 10//3 3//3 2//3 8//3 7//3
f 11//4 14//4 5//4 1//4 12//4 13//4
f 16//5 15//5 4//5 6//5 17//5 18//5
f 5//6 14//6 17//6 6//6
f 20//7 19//7 7//7 8//7 15//7 16//7
f 12//8 10//8 9//8 21//8 22//8 13//8
f 14//9 11//9 24//9 23//9 18//9 17//9
f 16//10 18//10 23//10 20//10
f 22//11 24//11 11//11 13//11
f 23//12 24//12 22//12 21//12 19//12 20//12
f 4//13 15//13 8//13 2//13
f 19//14 21//14 9//14 7//14
o Obj3_Mesh3
v -1.008700 -1.394334 -0.690228
v -0.706017 -2.001288 -0.387545
v -1.008700 -1.697811 -0.387545
v -0.403334 -2.001288 -0.690228
v -0.706017 -1.394334 -0.992911
v -0.403334 -1.697811 -0.992911
v -0.403334 -2.001288 -0.084862
v -0.706017 -1.394334 0.217822
v -1.008700 -1.394334 -0.084862
v -0.403334 -0.787380 -0.690228
v -1.008700 -1.090857 -0.387545
v -0.706017 -0.787380 -0.387545
v -0.403334 -1.090857 -0.992911
v -0.100650 -2.001288 -0.387545
v -0.100650 -1.394334 -0.992911
v 0.202033 -1.394334 -0.690228
v -0.403334 -0.787380 -0.084862
v -0.100650 -0.787380 -0.387545
vn -1.0000 0.0000 0.0000
vn -0.5779 -0.5763 -0.5779
vn -0.5779 -0.5763 0.5779
vn -0.5779 0.5763 -0.5779
vn 0.5779 -0.5763 -0.5779
vn 0.0000 0.0000 -1.0000
vn -0.5779 0.5763 0.5779
vn 0.5779 0.5763 -0.5779
vn 0.0000 1.0000 0.0000
vn 0.0000 -1.0000 0.0000
vn 0.7071 0.0000 0.7071
usemtl _0020_Red
s off
f 35//15 25//15 27//15 33//15
f 25//16 29//16 30//16 28//16 26//16 27//16
f 32//17 33//17 27//17 26//17 31//17
f 34//18 37//18 29//18 25//18 35//18 36//18
f 40//19 38//19 28//19 30//19 39//19
f 29//20 37//20 39//20 30//20
f 35//21 33//21 32//21 41//21 36//21
f 37//22 34//22 42//22 40//22 39//22
f 41//23 42//23 34//23 36//23
f 28//24 38//24 31//24 26//24
f 42//25 41//25 32//25 31//25 38//25 40//25
