# Blender v2.79 (sub 0) OBJ File: 'hex1.blend'
# www.blender.org
mtllib hex1.mtl
o base1
v -0.523673 0.168072 -0.011014
v -0.523673 2.168072 -0.011014
v 0.342352 2.168072 0.488986
v 0.342352 0.168072 0.488986
v 0.342352 2.168072 1.488986
v 0.342352 0.168072 1.488986
v -0.523673 2.168072 1.988986
v -0.523673 0.168072 1.988986
v -1.389699 2.168072 1.488986
v -1.389699 0.168072 1.488986
v -1.389699 2.168072 0.488986
v -1.389699 0.168072 0.488986
vn 0.5000 0.0000 -0.8660
vn 1.0000 0.0000 0.0000
vn 0.5000 -0.0000 0.8660
vn -0.5000 -0.0000 0.8660
vn 0.0000 1.0000 0.0000
vn -1.0000 0.0000 0.0000
vn -0.5000 0.0000 -0.8660
vn 0.0000 -1.0000 -0.0000
usemtl None
s 1
f 1//1 2//1 3//1 4//1
f 4//2 3//2 5//2 6//2
f 6//3 5//3 7//3 8//3
f 8//4 7//4 9//4 10//4
f 11//5 9//5 7//5 5//5 3//5 2//5
f 10//6 9//6 11//6 12//6
f 12//7 11//7 2//7 1//7
f 1//8 4//8 6//8 8//8 10//8 12//8
