# Blender v2.79 (sub 0) OBJ File: 'hex3.blend'
# www.blender.org
mtllib hex3.mtl
o base1
v -0.523673 0.168072 -0.011014
v -0.523673 2.168072 -0.011014
v 0.342352 2.168072 0.488986
v 0.342352 0.168072 0.488986
v 0.342352 2.168072 1.488986
v 0.342352 0.168072 1.488986
v -0.523673 2.168072 1.988986
v -0.523673 0.168072 1.988986
v -1.389699 2.168072 1.488986
v -1.389699 0.168072 1.488986
v -1.389699 2.168072 0.488986
v -1.389699 0.168072 0.488986
vn 0.5000 0.0000 -0.8660
vn 1.0000 0.0000 0.0000
vn 0.5000 -0.0000 0.8660
vn -0.5000 -0.0000 0.8660
vn 0.0000 1.0000 0.0000
vn -1.0000 0.0000 0.0000
vn -0.5000 0.0000 -0.8660
vn 0.0000 -1.0000 -0.0000
usemtl None
s 1
f 1//1 2//1 3//1 4//1
f 4//2 3//2 5//2 6//2
f 6//3 5//3 7//3 8//3
f 8//4 7//4 9//4 10//4
f 11//5 9//5 7//5 5//5 3//5 2//5
f 10//6 9//6 11//6 12//6
f 12//7 11//7 2//7 1//7
f 1//8 4//8 6//8 8//8 10//8 12//8
o base3
v 0.390528 0.122077 -1.638457
v 0.390528 2.122077 -1.638457
v 1.256554 2.122077 -1.138457
v 1.256554 0.122077 -1.138457
v 1.256554 2.122077 -0.138457
v 1.256554 0.122077 -0.138457
v 0.342352 2.168072 0.488986
v 0.342352 0.168072 0.488986
v -0.523673 2.168072 -0.011014
v -0.523673 0.168072 -0.011014
v -0.460839 2.130686 -1.067201
v -0.460839 0.130686 -1.067201
vn 0.5000 0.0000 -0.8660
vn 1.0000 -0.0000 0.0000
vn 0.5659 -0.0000 0.8245
vn -0.5000 -0.0000 0.8660
vn 0.0145 0.9997 -0.0201
vn -0.9982 0.0000 -0.0594
vn -0.5572 0.0000 -0.8304
vn -0.0145 -0.9997 0.0201
usemtl None
s 1
f 13//9 14//9 15//9 16//9
f 16//10 15//10 17//10 18//10
f 18//11 17//11 19//11 20//11
f 20//12 19//12 21//12 22//12
f 15//13 14//13 23//13 21//13 19//13 17//13
f 22//14 21//14 23//14 24//14
f 24//15 23//15 14//15 13//15
f 16//16 18//16 20//16 22//16 24//16 13//16
o base2
v -1.291329 0.130686 -1.624235
v -1.291329 2.130686 -1.624235
v -0.460839 2.130686 -1.067201
v -0.460839 0.130686 -1.067201
v -0.523673 2.168072 -0.011014
v -0.523673 0.168072 -0.011014
v -1.389699 2.168072 0.488986
v -1.389699 0.168072 0.488986
v -2.312766 2.176681 -0.061864
v -2.312766 0.176681 -0.061864
v -2.188979 2.130686 -1.183526
v -2.188979 0.130686 -1.183526
vn 0.5570 0.0000 -0.8305
vn 0.9982 0.0000 0.0594
vn 0.5000 -0.0000 0.8660
vn -0.5124 -0.0000 0.8587
vn -0.9940 -0.0000 -0.1097
vn -0.4407 0.0000 -0.8977
vn -0.0037 -0.9997 0.0245
vn 0.0037 0.9997 -0.0245
usemtl (null)
s 1
f 25//17 26//17 27//17 28//17
f 28//18 27//18 29//18 30//18
f 30//19 29//19 31//19 32//19
f 32//20 31//20 33//20 34//20
f 34//21 33//21 35//21 36//21
f 36//22 35//22 26//22 25//22
f 36//23 25//23 28//23 30//23 32//23 34//23
f 35//24 33//24 31//24 29//24 27//24 26//24
