# Blender v2.80 (sub 60) OBJ File: 'hex4.blend'
# www.blender.org
mtllib hex4.mtl
o base1.001
v -2.312766 0.176681 -0.061864
v -2.312766 2.176681 -0.061864
v -1.389699 2.168072 0.488986
v -1.389699 0.168072 0.488986
v -1.389699 2.168072 1.488986
v -1.389699 0.168072 1.488986
v -2.269540 2.151241 2.012316
v -2.269540 0.151240 2.012315
v -3.135566 2.151241 1.512316
v -3.135566 0.151241 1.512315
v -3.135566 2.151241 0.512316
v -3.135566 0.151241 0.512315
vn 0.5124 0.0000 -0.8587
vn 1.0000 -0.0000 0.0000
vn 0.5112 -0.0000 0.8595
vn -0.5000 -0.0000 0.8660
vn -0.0095 0.9999 0.0084
vn -1.0000 0.0000 0.0000
vn -0.5723 0.0000 -0.8201
vn 0.0095 -0.9999 -0.0084
usemtl None
s 1
f 1//1 2//1 3//1 4//1
f 4//2 3//2 5//2 6//2
f 6//3 5//3 7//3 8//3
f 8//4 7//4 9//4 10//4
f 11//5 9//5 7//5 5//5 3//5 2//5
f 10//6 9//6 11//6 12//6
f 12//7 11//7 2//7 1//7
f 1//8 4//8 6//8 8//8 10//8 12//8
o base1
v -0.523673 0.168072 -0.011014
v -0.523673 2.168072 -0.011014
v 0.342352 2.168072 0.488986
v 0.342352 0.168072 0.488986
v 0.342352 2.168072 1.488986
v 0.342352 0.168072 1.488986
v -0.523673 2.168072 1.988986
v -0.523673 0.168072 1.988986
v -1.389699 2.168072 1.488986
v -1.389699 0.168072 1.488986
v -1.389699 2.168072 0.488986
v -1.389699 0.168072 0.488986
vn 0.5000 0.0000 -0.8660
vn 1.0000 0.0000 0.0000
vn 0.5000 -0.0000 0.8660
vn -0.5000 -0.0000 0.8660
vn 0.0000 1.0000 0.0000
vn -1.0000 0.0000 0.0000
vn -0.5000 0.0000 -0.8660
vn 0.0000 -1.0000 -0.0000
usemtl None
s 1
f 13//9 14//9 15//9 16//9
f 16//10 15//10 17//10 18//10
f 18//11 17//11 19//11 20//11
f 20//12 19//12 21//12 22//12
f 23//13 21//13 19//13 17//13 15//13 14//13
f 22//14 21//14 23//14 24//14
f 24//15 23//15 14//15 13//15
f 13//16 16//16 18//16 20//16 22//16 24//16
o base3
v 0.390528 0.122077 -1.638457
v 0.390528 2.122077 -1.638457
v 1.256554 2.122077 -1.138457
v 1.256554 0.122077 -1.138457
v 1.256554 2.122077 -0.138457
v 1.256554 0.122077 -0.138457
v 0.342352 2.168072 0.488986
v 0.342352 0.168072 0.488986
v -0.523673 2.168072 -0.011014
v -0.523673 0.168072 -0.011014
v -0.460839 2.130686 -1.067201
v -0.460839 0.130686 -1.067201
vn 0.5000 0.0000 -0.8660
vn 1.0000 -0.0000 0.0000
vn 0.5659 -0.0000 0.8245
vn -0.5000 -0.0000 0.8660
vn 0.0145 0.9997 -0.0201
vn -0.9982 0.0000 -0.0594
vn -0.5572 0.0000 -0.8304
vn -0.0145 -0.9997 0.0201
usemtl None
s 1
f 25//17 26//17 27//17 28//17
f 28//18 27//18 29//18 30//18
f 30//19 29//19 31//19 32//19
f 32//20 31//20 33//20 34//20
f 27//21 26//21 35//21 33//21 31//21 29//21
f 34//22 33//22 35//22 36//22
f 36//23 35//23 26//23 25//23
f 28//24 30//24 32//24 34//24 36//24 25//24
o base2
v -1.291329 0.130686 -1.624235
v -1.291329 2.130686 -1.624235
v -0.460839 2.130686 -1.067201
v -0.460839 0.130686 -1.067201
v -0.523673 2.168072 -0.011014
v -0.523673 0.168072 -0.011014
v -1.389699 2.168072 0.488986
v -1.389699 0.168072 0.488986
v -2.312766 2.176681 -0.061864
v -2.312766 0.176681 -0.061864
v -2.188979 2.130686 -1.183526
v -2.188979 0.130686 -1.183526
vn 0.5570 0.0000 -0.8305
vn 0.9982 0.0000 0.0594
vn 0.5000 -0.0000 0.8660
vn -0.5124 -0.0000 0.8587
vn -0.9940 -0.0000 -0.1097
vn -0.4407 0.0000 -0.8977
vn -0.0037 -0.9997 0.0245
vn 0.0037 0.9997 -0.0245
usemtl (null)
s 1
f 37//25 38//25 39//25 40//25
f 40//26 39//26 41//26 42//26
f 42//27 41//27 43//27 44//27
f 44//28 43//28 45//28 46//28
f 46//29 45//29 47//29 48//29
f 48//30 47//30 38//30 37//30
f 48//31 37//31 40//31 42//31 44//31 46//31
f 47//32 45//32 43//32 41//32 39//32 38//32
