# Blender v2.79 (sub 0) OBJ File: 'sphere1.blend'
# www.blender.org
mtllib sphere.t1.mtl
o cell.12_Icosphere.015
v 0.725326 3.089666 3.729080
v -2.209877 3.089376 4.662419
v -4.003744 3.089375 2.193370
v -2.209037 3.089668 -0.309739
v 0.716761 3.106835 0.649910
v -0.221267 1.579800 1.331432
v -1.843047 1.568500 0.798550
v -2.836226 1.568498 2.187014
v -1.843047 1.568500 3.554007
v -0.215617 1.568499 3.038515
vn -0.0022 1.0000 0.0016
vn 0.0025 -1.0000 -0.0018
vn -0.6907 -0.5274 -0.4948
vn -0.6865 -0.5291 0.4988
vn 0.2572 -0.5274 0.8098
vn 0.8513 -0.5247 -0.0056
vn 0.2684 -0.5247 -0.8078
usemtl None
s off
f 2//1 1//1 5//1 4//1 3//1
f 9//2 8//2 7//2 6//2 10//2
f 4//3 7//3 8//3 3//3
f 3//4 8//4 9//4 2//4
f 2//5 9//5 10//5 1//5
f 1//6 10//6 6//6 5//6
f 5//7 6//7 7//7 4//7
o cell.11_Icosphere.014
v -2.690750 0.466985 -1.845053
v -0.093924 -1.137984 -1.845054
v 2.036675 0.466997 -0.309043
v -2.209037 3.089668 -0.309739
v 0.716761 3.106835 0.649910
v -0.221267 1.579800 1.331432
v -1.843047 1.568500 0.798550
v 0.512201 0.112854 0.798552
v -0.671083 -0.775483 -0.052936
v -2.108410 0.112865 -0.052936
vn 0.2764 0.4472 -0.8507
vn -0.2764 -0.4472 0.8507
vn -0.2684 0.5247 0.8078
vn 0.5878 0.0000 0.8090
vn 0.4207 -0.8535 0.3074
vn -0.5257 -0.8506 0.0027
vn -0.9515 -0.0056 0.3075
usemtl None
s off
f 13//8 12//8 11//8 14//8 15//8
f 18//9 16//9 17//9 20//9 19//9
f 15//10 14//10 17//10 16//10
f 13//11 15//11 16//11 18//11
f 13//12 18//12 19//12 12//12
f 12//13 19//13 20//13 11//13
f 11//14 20//14 17//14 14//14
o cell.10_Icosphere.013
v -5.612869 0.464505 2.177805
v -4.811522 -1.138827 -0.290926
v -2.690750 0.466985 -1.845053
v -4.003744 3.089375 2.193370
v -2.209037 3.089668 -0.309739
v -1.843047 1.568500 0.798550
v -2.836226 1.568498 2.187014
v -2.108410 0.112865 -0.052936
v -3.283886 -0.775483 0.809307
v -3.728045 0.112875 2.176279
vn -0.7255 0.4452 -0.5249
vn 0.7256 -0.4449 0.5249
vn 0.6907 0.5274 0.4948
vn 0.9515 0.0056 -0.3075
vn 0.4221 -0.8536 -0.3052
vn -0.1584 -0.8507 0.5012
vn -0.0010 -0.0058 1.0000
usemtl None
s off
f 23//15 22//15 21//15 24//15 25//15
f 28//16 26//16 27//16 30//16 29//16
f 25//17 24//17 27//17 26//17
f 23//18 25//18 26//18 28//18
f 23//19 28//19 29//19 22//19
f 22//20 29//20 30//20 21//20
f 21//21 30//21 27//21 24//21
o cell.09_Icosphere.012
v -0.582709 -3.753684 -0.290275
v -3.512296 -3.736021 0.653852
v -4.811522 -1.138827 -0.290926
v -2.690750 0.466985 -1.845053
v -0.093924 -1.137984 -1.845054
v -0.671083 -0.775483 -0.052936
v -2.108410 0.112865 -0.052936
v -3.283886 -0.775483 0.809307
v -2.565208 -2.212829 1.331432
v -0.939925 -2.224122 0.809289
vn -0.2784 -0.4505 -0.8482
vn 0.2787 0.4509 0.8480
vn 0.5257 0.8506 -0.0027
vn 0.9523 0.0039 0.3051
vn 0.2582 -0.5228 0.8124
vn -0.5847 0.0025 0.8112
vn -0.4221 0.8536 0.3052
usemtl None
s off
f 31//22 32//22 33//22 34//22 35//22
f 40//23 36//23 37//23 38//23 39//23
f 35//24 34//24 37//24 36//24
f 31//25 35//25 36//25 40//25
f 31//26 40//26 39//26 32//26
f 32//27 39//27 38//27 33//27
f 34//28 33//28 38//28 37//28
o cell.08_Icosphere.011
v -3.492826 -3.735444 3.726828
v -4.792150 -1.136790 4.670833
v -3.512296 -3.736021 0.653852
v -5.612869 0.464505 2.177805
v -4.811522 -1.138827 -0.290926
v -3.283886 -0.775483 0.809307
v -3.728045 0.112875 2.176279
v -2.565208 -2.212829 1.331432
v -3.271242 -0.775483 3.560653
v -2.552573 -2.212829 3.038515
vn -0.8938 -0.4485 0.0042
vn 0.8937 0.4486 -0.0048
vn 0.1594 0.8538 0.4957
vn 0.1584 0.8507 -0.5012
vn 0.5847 -0.0025 -0.8112
vn 0.8500 -0.5267 -0.0056
vn 0.5894 0.0012 0.8078
usemtl None
s off
f 43//29 41//29 42//29 44//29 45//29
f 48//30 46//30 47//30 49//30 50//30
f 44//31 42//31 49//31 47//31
f 45//32 44//32 47//32 46//32
f 43//33 45//33 46//33 48//33
f 43//34 48//34 50//34 41//34
f 41//35 50//35 49//35 42//35
o cell.07_Icosphere.010
v 2.839121 -1.137984 2.191898
v 2.036649 0.466974 4.661643
v 2.036675 0.466997 -0.309043
v 0.725326 3.089666 3.729080
v 0.716761 3.106835 0.649910
v -0.221267 1.579800 1.331432
v -0.215617 1.568499 3.038515
v 0.512201 0.112854 0.798552
v 0.512201 0.112854 3.554005
v 0.956364 -0.775484 2.187023
vn 0.8944 0.4472 0.0000
vn -0.8944 -0.4472 -0.0000
vn -0.1623 -0.8535 -0.4951
vn -0.5878 -0.0000 -0.8090
vn -0.8513 0.5247 0.0056
vn -0.5865 -0.0056 0.8100
vn -0.1651 -0.8506 0.4992
usemtl None
s off
f 52//36 51//36 53//36 55//36 54//36
f 59//37 57//37 56//37 58//37 60//37
f 51//38 60//38 58//38 53//38
f 53//39 58//39 56//39 55//39
f 54//40 55//40 56//40 57//40
f 54//41 57//41 59//41 52//41
f 52//42 59//42 60//42 51//42
o cell.06_Icosphere.009
v -0.582709 -3.753684 -0.290275
v 1.209394 -3.753677 2.176329
v 2.839121 -1.137984 2.191898
v -0.093924 -1.137984 -1.845054
v 2.036675 0.466997 -0.309043
v 0.512201 0.112854 0.798552
v -0.671083 -0.775483 -0.052936
v 0.956364 -0.775484 2.187023
v 0.053259 -2.224117 2.176279
v -0.939925 -2.224122 0.809289
vn 0.7226 -0.4498 -0.5250
vn -0.7225 0.4500 0.5249
vn -0.6902 -0.5217 0.5015
vn -0.9523 -0.0039 -0.3051
vn -0.4207 0.8535 -0.3074
vn 0.1623 0.8535 0.4951
vn -0.0041 -0.0039 1.0000
usemtl None
s off
f 63//43 62//43 61//43 64//43 65//43
f 68//44 66//44 67//44 70//44 69//44
f 62//45 69//45 70//45 61//45
f 61//46 70//46 67//46 64//46
f 65//47 64//47 67//47 66//47
f 63//48 65//48 66//48 68//48
f 63//49 68//49 69//49 62//49
o cell.05_Icosphere.008
v 1.209394 -3.753677 2.176329
v 2.839121 -1.137984 2.191898
v 2.036649 0.466974 4.661643
v -0.590345 -3.735723 4.670065
v -0.094013 -1.137243 6.197789
v -0.671083 -0.775483 4.405493
v -0.945571 -2.212830 3.560645
v 0.512201 0.112854 3.554005
v 0.956364 -0.775484 2.187023
v 0.053259 -2.224117 2.176279
vn 0.7209 -0.4503 0.5267
vn -0.7204 0.4509 -0.5271
vn -0.6929 -0.5233 -0.4960
vn 0.0041 0.0039 -1.0000
vn 0.1651 0.8506 -0.4992
vn -0.4207 0.8536 0.3071
vn -0.9518 0.0015 0.3067
usemtl None
s off
f 71//50 72//50 73//50 75//50 74//50
f 80//51 77//51 76//51 78//51 79//51
f 74//52 77//52 80//52 71//52
f 72//53 71//53 80//53 79//53
f 73//54 72//54 79//54 78//54
f 75//55 73//55 78//55 76//55
f 75//56 76//56 77//56 74//56
o cell.04_Icosphere.007
v -0.582709 -3.753684 -0.290275
v 1.209394 -3.753677 2.176329
v -3.492826 -3.735444 3.726828
v -0.590345 -3.735723 4.670065
v -3.512296 -3.736021 0.653852
v -2.565208 -2.212829 1.331432
v -0.945571 -2.212830 3.560645
v -2.552573 -2.212829 3.038515
v 0.053259 -2.224117 2.176279
v -0.939925 -2.224122 0.809289
vn -0.0036 -1.0000 0.0027
vn 0.0041 1.0000 -0.0030
vn -0.8500 0.5267 0.0056
vn -0.2582 0.5228 -0.8124
vn 0.6902 0.5217 -0.5015
vn 0.6929 0.5233 0.4960
vn -0.2625 0.5274 0.8080
usemtl None
s off
f 83//57 85//57 81//57 82//57 84//57
f 88//58 87//58 89//58 90//58 86//58
f 85//59 83//59 88//59 86//59
f 81//60 85//60 86//60 90//60
f 82//61 81//61 90//61 89//61
f 84//62 82//62 89//62 87//62
f 84//63 87//63 88//63 83//63
o cell.01_Icosphere.006
v -3.492826 -3.735444 3.726828
v -0.590345 -3.735723 4.670065
v -0.094013 -1.137243 6.197789
v -2.690045 0.467238 6.197789
v -4.792150 -1.136790 4.670833
v -3.271242 -0.775483 3.560653
v -2.108410 0.112865 4.405493
v -0.671083 -0.775483 4.405493
v -0.945571 -2.212830 3.560645
v -2.552573 -2.212829 3.038515
vn -0.2765 -0.4473 0.8506
vn 0.2764 0.4472 -0.8507
vn 0.5257 0.8506 0.0024
vn -0.4265 0.8508 -0.3069
vn -0.5894 -0.0012 -0.8078
vn 0.2625 -0.5274 -0.8080
vn 0.9518 -0.0015 -0.3067
usemtl None
s off
f 91//64 92//64 93//64 94//64 95//64
f 100//65 96//65 97//65 98//65 99//65
f 94//66 93//66 98//66 97//66
f 95//67 94//67 97//67 96//67
f 91//68 95//68 96//68 100//68
f 92//69 91//69 100//69 99//69
f 93//70 92//70 99//70 98//70
o cell.03_Icosphere.005
v -2.690045 0.467238 6.197789
v -4.792150 -1.136790 4.670833
v -5.612869 0.464505 2.177805
v -2.209877 3.089376 4.662419
v -4.003744 3.089375 2.193370
v -2.836226 1.568498 2.187014
v -1.843047 1.568500 3.554007
v -3.728045 0.112875 2.176279
v -3.271242 -0.775483 3.560653
v -2.108410 0.112865 4.405493
vn -0.7251 0.4434 0.5269
vn 0.7254 -0.4427 -0.5271
vn 0.4265 -0.8508 0.3069
vn -0.1594 -0.8538 -0.4957
vn 0.0010 0.0058 -1.0000
vn 0.6865 0.5291 -0.4988
vn 0.9516 0.0059 0.3073
usemtl None
s off
f 103//71 102//71 101//71 104//71 105//71
f 108//72 106//72 107//72 110//72 109//72
f 102//73 109//73 110//73 101//73
f 103//74 108//74 109//74 102//74
f 103//75 105//75 106//75 108//75
f 105//76 104//76 107//76 106//76
f 101//77 110//77 107//77 104//77
o cell.02_Icosphere.004
v 2.036649 0.466974 4.661643
v 0.512201 0.112854 3.554005
v -0.671083 -0.775483 4.405493
v -2.108410 0.112865 4.405493
v -0.094013 -1.137243 6.197789
v -2.690045 0.467238 6.197789
v 0.725326 3.089666 3.729080
v -2.209877 3.089376 4.662419
v -0.215617 1.568499 3.038515
v -1.843047 1.568500 3.554007
vn -0.2750 -0.4449 -0.8523
vn 0.2752 0.4454 0.8520
vn -0.2572 0.5274 -0.8098
vn -0.9516 -0.0059 -0.3073
vn -0.5257 -0.8506 -0.0024
vn 0.4207 -0.8536 -0.3071
vn 0.5865 0.0056 -0.8100
usemtl None
s off
f 114//78 120//78 119//78 112//78 113//78
f 116//79 115//79 111//79 117//79 118//79
f 120//80 118//80 117//80 119//80
f 114//81 116//81 118//81 120//81
f 114//82 113//82 115//82 116//82
f 113//83 112//83 111//83 115//83
f 119//84 117//84 111//84 112//84
